<?xml version="1.0" encoding="UTF-8"?>
<svg width="20px" height="20px" viewBox="0 0 20 20" version="1.1" xmlns="http://www.w3.org/2000/svg" xmlns:xlink="http://www.w3.org/1999/xlink">
    <!-- Generator: Sketch 48.2 (47327) - http://www.bohemiancoding.com/sketch -->
    <title>icon-slack-community-small</title>
    <desc>Created with Sketch.</desc>
    <defs></defs>
    <g id="1a---dashboard---overview---temporary" stroke="none" stroke-width="1" fill="none" fill-rule="evenodd" transform="translate(-765.000000, -700.000000)">
        <g id="Group-3" transform="translate(765.000000, 700.000000)" fill="#556F7D">
            <path d="M10,20 C4.4771525,20 0,15.5228475 0,10 C0,4.4771525 4.4771525,0 10,0 C15.5228475,0 20,4.4771525 20,10 C20,15.5228475 15.5228475,20 10,20 Z M15.6984127,11.6507937 C16.2380952,11.4761905 16.5238095,10.8888889 16.3492063,10.3492063 C16.1746032,9.80952381 15.5873016,9.52380952 15.047619,9.6984127 L13.7619048,10.1269841 L12.9047619,7.57142857 L14.1904762,7.14285714 C14.7301587,6.96825397 15.015873,6.38095238 14.8412698,5.84126984 C14.6666667,5.3015873 14.0793651,5.01587302 13.5396825,5.19047619 L12.2539683,5.61904762 L11.8095238,4.28571429 C11.6349206,3.74603175 11.047619,3.46031746 10.5079365,3.63492063 C9.96825397,3.80952381 9.68253968,4.3968254 9.85714286,4.93650794 L10.3015873,6.26984127 L7.65079365,7.15873016 L7.20634921,5.82539683 C7.03174603,5.28571429 6.44444444,5 5.9047619,5.17460317 C5.36507937,5.34920635 5.07936508,5.93650794 5.25396825,6.47619048 L5.6984127,7.80952381 L4.41269841,8.23809524 C3.87301587,8.41269841 3.58730159,9 3.76190476,9.53968254 C3.9047619,9.95238095 4.3015873,10.2222222 4.71428571,10.2380952 C4.82539683,10.2539683 4.95238095,10.2222222 5.06349206,10.1904762 L6.34920635,9.76190476 L7.20634921,12.3174603 L5.92063492,12.7460317 C5.38095238,12.9206349 5.0952381,13.5079365 5.26984127,14.047619 C5.41269841,14.4603175 5.80952381,14.7301587 6.22222222,14.7460317 C6.33333333,14.7619048 6.46031746,14.7301587 6.57142857,14.6984127 L7.85714286,14.2698413 L8.3015873,15.6031746 C8.44444444,16.015873 8.84126984,16.2857143 9.25396825,16.3015873 C9.36507937,16.3174603 9.49206349,16.2857143 9.6031746,16.2539683 C10.1428571,16.0793651 10.4285714,15.4920635 10.2539683,14.952381 L9.80952381,13.6190476 L12.4603175,12.7301587 L12.9047619,14.0634921 C13.047619,14.4761905 13.4444444,14.7460317 13.8571429,14.7619048 C13.968254,14.7777778 14.0952381,14.7460317 14.2063492,14.7142857 C14.7460317,14.5396825 15.031746,13.952381 14.8571429,13.4126984 L14.4126984,12.0793651 L15.6984127,11.6507937 Z M8.29499817,9.11850082 L10.9025835,8.24500275 L11.7760815,10.852588 L9.16849625,11.7260861 L8.29499817,9.11850082 Z" id="icon-slack-community-small"></path>
        </g>
    </g>
</svg>